<mxfile host="app.diagrams.net" agent="Mozilla/5.0 (X11; Linux x86_64; rv:136.0) Gecko/20100101 Firefox/136.0" version="26.1.1">
  <diagram id="C5RBs43oDa-KdzZeNtuy" name="Page-1">
    <mxGraphModel dx="3405" dy="1375" grid="1" gridSize="10" guides="1" tooltips="1" connect="1" arrows="1" fold="1" page="1" pageScale="1" pageWidth="827" pageHeight="1169" math="0" shadow="0">
      <root>
        <mxCell id="WIyWlLk6GJQsqaUBKTNV-0" />
        <mxCell id="WIyWlLk6GJQsqaUBKTNV-1" parent="WIyWlLk6GJQsqaUBKTNV-0" />
        <mxCell id="raruHrNSubf8gWWc9drY-1" value="" style="html=1;whiteSpace=wrap;" parent="WIyWlLk6GJQsqaUBKTNV-1" vertex="1">
          <mxGeometry x="-40" y="60" width="2020" height="1170" as="geometry" />
        </mxCell>
        <mxCell id="GgUAt2SMdh1L7S2Ylz6X-92" value="" style="html=1;whiteSpace=wrap;" parent="WIyWlLk6GJQsqaUBKTNV-1" vertex="1">
          <mxGeometry x="50" y="150" width="1040" height="650" as="geometry" />
        </mxCell>
        <mxCell id="GgUAt2SMdh1L7S2Ylz6X-47" style="edgeStyle=orthogonalEdgeStyle;rounded=0;orthogonalLoop=1;jettySize=auto;html=1;exitX=0.15;exitY=0.05;exitDx=0;exitDy=0;exitPerimeter=0;entryX=0.25;entryY=1;entryDx=0;entryDy=0;" parent="WIyWlLk6GJQsqaUBKTNV-1" source="GgUAt2SMdh1L7S2Ylz6X-0" target="GgUAt2SMdh1L7S2Ylz6X-11" edge="1">
          <mxGeometry relative="1" as="geometry" />
        </mxCell>
        <mxCell id="GgUAt2SMdh1L7S2Ylz6X-0" value="" style="shape=datastore;whiteSpace=wrap;html=1;" parent="WIyWlLk6GJQsqaUBKTNV-1" vertex="1">
          <mxGeometry x="485" y="590" width="110" height="120" as="geometry" />
        </mxCell>
        <mxCell id="GgUAt2SMdh1L7S2Ylz6X-69" style="edgeStyle=orthogonalEdgeStyle;rounded=0;orthogonalLoop=1;jettySize=auto;html=1;exitX=0.25;exitY=0;exitDx=0;exitDy=0;entryX=0;entryY=0.25;entryDx=0;entryDy=0;" parent="WIyWlLk6GJQsqaUBKTNV-1" source="GgUAt2SMdh1L7S2Ylz6X-3" target="GgUAt2SMdh1L7S2Ylz6X-54" edge="1">
          <mxGeometry relative="1" as="geometry" />
        </mxCell>
        <mxCell id="GgUAt2SMdh1L7S2Ylz6X-3" value="Users service" style="swimlane;fontStyle=0;childLayout=stackLayout;horizontal=1;startSize=26;fillColor=none;horizontalStack=0;resizeParent=1;resizeParentMax=0;resizeLast=0;collapsible=1;marginBottom=0;whiteSpace=wrap;html=1;" parent="WIyWlLk6GJQsqaUBKTNV-1" vertex="1">
          <mxGeometry x="70" y="420" width="140" height="100" as="geometry" />
        </mxCell>
        <mxCell id="GgUAt2SMdh1L7S2Ylz6X-64" style="edgeStyle=orthogonalEdgeStyle;rounded=0;orthogonalLoop=1;jettySize=auto;html=1;exitX=0.75;exitY=0;exitDx=0;exitDy=0;entryX=0;entryY=1;entryDx=0;entryDy=0;" parent="WIyWlLk6GJQsqaUBKTNV-1" source="GgUAt2SMdh1L7S2Ylz6X-7" target="GgUAt2SMdh1L7S2Ylz6X-54" edge="1">
          <mxGeometry relative="1" as="geometry">
            <Array as="points">
              <mxPoint x="375" y="270" />
            </Array>
          </mxGeometry>
        </mxCell>
        <mxCell id="GgUAt2SMdh1L7S2Ylz6X-7" value="&lt;div&gt;Chat service&lt;/div&gt;" style="swimlane;fontStyle=0;childLayout=stackLayout;horizontal=1;startSize=26;fillColor=none;horizontalStack=0;resizeParent=1;resizeParentMax=0;resizeLast=0;collapsible=1;marginBottom=0;whiteSpace=wrap;html=1;" parent="WIyWlLk6GJQsqaUBKTNV-1" vertex="1">
          <mxGeometry x="270" y="420" width="140" height="100" as="geometry" />
        </mxCell>
        <mxCell id="GgUAt2SMdh1L7S2Ylz6X-65" style="edgeStyle=orthogonalEdgeStyle;rounded=0;orthogonalLoop=1;jettySize=auto;html=1;exitX=0.25;exitY=0;exitDx=0;exitDy=0;entryX=0.25;entryY=1;entryDx=0;entryDy=0;" parent="WIyWlLk6GJQsqaUBKTNV-1" source="GgUAt2SMdh1L7S2Ylz6X-11" target="GgUAt2SMdh1L7S2Ylz6X-54" edge="1">
          <mxGeometry relative="1" as="geometry" />
        </mxCell>
        <mxCell id="GgUAt2SMdh1L7S2Ylz6X-11" value="Voice service" style="swimlane;fontStyle=0;childLayout=stackLayout;horizontal=1;startSize=26;fillColor=none;horizontalStack=0;resizeParent=1;resizeParentMax=0;resizeLast=0;collapsible=1;marginBottom=0;whiteSpace=wrap;html=1;" parent="WIyWlLk6GJQsqaUBKTNV-1" vertex="1">
          <mxGeometry x="470" y="420" width="140" height="100" as="geometry" />
        </mxCell>
        <mxCell id="GgUAt2SMdh1L7S2Ylz6X-66" style="edgeStyle=orthogonalEdgeStyle;rounded=0;orthogonalLoop=1;jettySize=auto;html=1;exitX=0.25;exitY=0;exitDx=0;exitDy=0;entryX=1;entryY=1;entryDx=0;entryDy=0;" parent="WIyWlLk6GJQsqaUBKTNV-1" source="GgUAt2SMdh1L7S2Ylz6X-16" target="GgUAt2SMdh1L7S2Ylz6X-54" edge="1">
          <mxGeometry relative="1" as="geometry">
            <Array as="points">
              <mxPoint x="705" y="270" />
            </Array>
          </mxGeometry>
        </mxCell>
        <mxCell id="GgUAt2SMdh1L7S2Ylz6X-16" value="Notification service" style="swimlane;fontStyle=0;childLayout=stackLayout;horizontal=1;startSize=26;fillColor=none;horizontalStack=0;resizeParent=1;resizeParentMax=0;resizeLast=0;collapsible=1;marginBottom=0;whiteSpace=wrap;html=1;" parent="WIyWlLk6GJQsqaUBKTNV-1" vertex="1">
          <mxGeometry x="670" y="420" width="140" height="100" as="geometry" />
        </mxCell>
        <mxCell id="GgUAt2SMdh1L7S2Ylz6X-67" style="edgeStyle=orthogonalEdgeStyle;rounded=0;orthogonalLoop=1;jettySize=auto;html=1;exitX=0.75;exitY=0;exitDx=0;exitDy=0;entryX=1;entryY=0.25;entryDx=0;entryDy=0;" parent="WIyWlLk6GJQsqaUBKTNV-1" source="GgUAt2SMdh1L7S2Ylz6X-20" target="GgUAt2SMdh1L7S2Ylz6X-54" edge="1">
          <mxGeometry relative="1" as="geometry" />
        </mxCell>
        <mxCell id="GgUAt2SMdh1L7S2Ylz6X-20" value="File storage" style="swimlane;fontStyle=0;childLayout=stackLayout;horizontal=1;startSize=26;fillColor=none;horizontalStack=0;resizeParent=1;resizeParentMax=0;resizeLast=0;collapsible=1;marginBottom=0;whiteSpace=wrap;html=1;" parent="WIyWlLk6GJQsqaUBKTNV-1" vertex="1">
          <mxGeometry x="870" y="420" width="140" height="100" as="geometry" />
        </mxCell>
        <mxCell id="GgUAt2SMdh1L7S2Ylz6X-45" style="edgeStyle=orthogonalEdgeStyle;rounded=0;orthogonalLoop=1;jettySize=auto;html=1;exitX=0.15;exitY=0.05;exitDx=0;exitDy=0;exitPerimeter=0;entryX=0.25;entryY=1;entryDx=0;entryDy=0;" parent="WIyWlLk6GJQsqaUBKTNV-1" source="GgUAt2SMdh1L7S2Ylz6X-25" target="GgUAt2SMdh1L7S2Ylz6X-16" edge="1">
          <mxGeometry relative="1" as="geometry" />
        </mxCell>
        <mxCell id="GgUAt2SMdh1L7S2Ylz6X-25" value="" style="shape=datastore;whiteSpace=wrap;html=1;" parent="WIyWlLk6GJQsqaUBKTNV-1" vertex="1">
          <mxGeometry x="685" y="590" width="110" height="120" as="geometry" />
        </mxCell>
        <mxCell id="GgUAt2SMdh1L7S2Ylz6X-43" style="edgeStyle=orthogonalEdgeStyle;rounded=0;orthogonalLoop=1;jettySize=auto;html=1;exitX=0.15;exitY=0.05;exitDx=0;exitDy=0;exitPerimeter=0;entryX=0.25;entryY=1;entryDx=0;entryDy=0;" parent="WIyWlLk6GJQsqaUBKTNV-1" source="GgUAt2SMdh1L7S2Ylz6X-26" target="GgUAt2SMdh1L7S2Ylz6X-20" edge="1">
          <mxGeometry relative="1" as="geometry" />
        </mxCell>
        <mxCell id="GgUAt2SMdh1L7S2Ylz6X-26" value="" style="shape=datastore;whiteSpace=wrap;html=1;" parent="WIyWlLk6GJQsqaUBKTNV-1" vertex="1">
          <mxGeometry x="885" y="590" width="110" height="120" as="geometry" />
        </mxCell>
        <mxCell id="GgUAt2SMdh1L7S2Ylz6X-49" style="edgeStyle=orthogonalEdgeStyle;rounded=0;orthogonalLoop=1;jettySize=auto;html=1;exitX=0.15;exitY=0.05;exitDx=0;exitDy=0;exitPerimeter=0;entryX=0.25;entryY=1;entryDx=0;entryDy=0;" parent="WIyWlLk6GJQsqaUBKTNV-1" source="GgUAt2SMdh1L7S2Ylz6X-27" target="GgUAt2SMdh1L7S2Ylz6X-7" edge="1">
          <mxGeometry relative="1" as="geometry" />
        </mxCell>
        <mxCell id="GgUAt2SMdh1L7S2Ylz6X-27" value="" style="shape=datastore;whiteSpace=wrap;html=1;" parent="WIyWlLk6GJQsqaUBKTNV-1" vertex="1">
          <mxGeometry x="285" y="590" width="110" height="120" as="geometry" />
        </mxCell>
        <mxCell id="GgUAt2SMdh1L7S2Ylz6X-51" style="edgeStyle=orthogonalEdgeStyle;rounded=0;orthogonalLoop=1;jettySize=auto;html=1;exitX=0.15;exitY=0.05;exitDx=0;exitDy=0;exitPerimeter=0;entryX=0.25;entryY=1;entryDx=0;entryDy=0;" parent="WIyWlLk6GJQsqaUBKTNV-1" source="GgUAt2SMdh1L7S2Ylz6X-28" target="GgUAt2SMdh1L7S2Ylz6X-3" edge="1">
          <mxGeometry relative="1" as="geometry" />
        </mxCell>
        <mxCell id="GgUAt2SMdh1L7S2Ylz6X-28" value="" style="shape=datastore;whiteSpace=wrap;html=1;" parent="WIyWlLk6GJQsqaUBKTNV-1" vertex="1">
          <mxGeometry x="85" y="590" width="110" height="120" as="geometry" />
        </mxCell>
        <mxCell id="GgUAt2SMdh1L7S2Ylz6X-29" value="PostgreSQL" style="text;align=center;fontStyle=1;verticalAlign=middle;spacingLeft=3;spacingRight=3;strokeColor=none;rotatable=0;points=[[0,0.5],[1,0.5]];portConstraint=eastwest;html=1;" parent="WIyWlLk6GJQsqaUBKTNV-1" vertex="1">
          <mxGeometry x="100" y="640" width="80" height="26" as="geometry" />
        </mxCell>
        <mxCell id="GgUAt2SMdh1L7S2Ylz6X-30" value="PostgreSQL" style="text;align=center;fontStyle=1;verticalAlign=middle;spacingLeft=3;spacingRight=3;strokeColor=none;rotatable=0;points=[[0,0.5],[1,0.5]];portConstraint=eastwest;html=1;" parent="WIyWlLk6GJQsqaUBKTNV-1" vertex="1">
          <mxGeometry x="300" y="640" width="80" height="26" as="geometry" />
        </mxCell>
        <mxCell id="GgUAt2SMdh1L7S2Ylz6X-31" value="PostgreSQL" style="text;align=center;fontStyle=1;verticalAlign=middle;spacingLeft=3;spacingRight=3;strokeColor=none;rotatable=0;points=[[0,0.5],[1,0.5]];portConstraint=eastwest;html=1;" parent="WIyWlLk6GJQsqaUBKTNV-1" vertex="1">
          <mxGeometry x="500" y="640" width="80" height="26" as="geometry" />
        </mxCell>
        <mxCell id="GgUAt2SMdh1L7S2Ylz6X-32" value="PostgreSQL" style="text;align=center;fontStyle=1;verticalAlign=middle;spacingLeft=3;spacingRight=3;strokeColor=none;rotatable=0;points=[[0,0.5],[1,0.5]];portConstraint=eastwest;html=1;" parent="WIyWlLk6GJQsqaUBKTNV-1" vertex="1">
          <mxGeometry x="700" y="640" width="80" height="26" as="geometry" />
        </mxCell>
        <mxCell id="GgUAt2SMdh1L7S2Ylz6X-33" value="MongoDB" style="text;align=center;fontStyle=1;verticalAlign=middle;spacingLeft=3;spacingRight=3;strokeColor=none;rotatable=0;points=[[0,0.5],[1,0.5]];portConstraint=eastwest;html=1;" parent="WIyWlLk6GJQsqaUBKTNV-1" vertex="1">
          <mxGeometry x="900" y="640" width="80" height="26" as="geometry" />
        </mxCell>
        <mxCell id="GgUAt2SMdh1L7S2Ylz6X-42" style="edgeStyle=orthogonalEdgeStyle;rounded=0;orthogonalLoop=1;jettySize=auto;html=1;exitX=0.75;exitY=1;exitDx=0;exitDy=0;entryX=0.85;entryY=0.05;entryDx=0;entryDy=0;entryPerimeter=0;" parent="WIyWlLk6GJQsqaUBKTNV-1" source="GgUAt2SMdh1L7S2Ylz6X-20" target="GgUAt2SMdh1L7S2Ylz6X-26" edge="1">
          <mxGeometry relative="1" as="geometry" />
        </mxCell>
        <mxCell id="GgUAt2SMdh1L7S2Ylz6X-44" style="edgeStyle=orthogonalEdgeStyle;rounded=0;orthogonalLoop=1;jettySize=auto;html=1;exitX=0.75;exitY=1;exitDx=0;exitDy=0;entryX=0.85;entryY=0.05;entryDx=0;entryDy=0;entryPerimeter=0;" parent="WIyWlLk6GJQsqaUBKTNV-1" source="GgUAt2SMdh1L7S2Ylz6X-16" target="GgUAt2SMdh1L7S2Ylz6X-25" edge="1">
          <mxGeometry relative="1" as="geometry" />
        </mxCell>
        <mxCell id="GgUAt2SMdh1L7S2Ylz6X-46" style="edgeStyle=orthogonalEdgeStyle;rounded=0;orthogonalLoop=1;jettySize=auto;html=1;exitX=0.75;exitY=1;exitDx=0;exitDy=0;entryX=0.85;entryY=0.05;entryDx=0;entryDy=0;entryPerimeter=0;" parent="WIyWlLk6GJQsqaUBKTNV-1" source="GgUAt2SMdh1L7S2Ylz6X-11" target="GgUAt2SMdh1L7S2Ylz6X-0" edge="1">
          <mxGeometry relative="1" as="geometry" />
        </mxCell>
        <mxCell id="GgUAt2SMdh1L7S2Ylz6X-48" style="edgeStyle=orthogonalEdgeStyle;rounded=0;orthogonalLoop=1;jettySize=auto;html=1;exitX=0.75;exitY=1;exitDx=0;exitDy=0;entryX=0.85;entryY=0.05;entryDx=0;entryDy=0;entryPerimeter=0;" parent="WIyWlLk6GJQsqaUBKTNV-1" source="GgUAt2SMdh1L7S2Ylz6X-7" target="GgUAt2SMdh1L7S2Ylz6X-27" edge="1">
          <mxGeometry relative="1" as="geometry" />
        </mxCell>
        <mxCell id="GgUAt2SMdh1L7S2Ylz6X-50" style="edgeStyle=orthogonalEdgeStyle;rounded=0;orthogonalLoop=1;jettySize=auto;html=1;exitX=0.75;exitY=1;exitDx=0;exitDy=0;entryX=0.85;entryY=0.05;entryDx=0;entryDy=0;entryPerimeter=0;" parent="WIyWlLk6GJQsqaUBKTNV-1" source="GgUAt2SMdh1L7S2Ylz6X-3" target="GgUAt2SMdh1L7S2Ylz6X-28" edge="1">
          <mxGeometry relative="1" as="geometry" />
        </mxCell>
        <mxCell id="GgUAt2SMdh1L7S2Ylz6X-59" style="edgeStyle=orthogonalEdgeStyle;rounded=0;orthogonalLoop=1;jettySize=auto;html=1;exitX=0;exitY=0.5;exitDx=0;exitDy=0;entryX=0.5;entryY=0;entryDx=0;entryDy=0;" parent="WIyWlLk6GJQsqaUBKTNV-1" source="GgUAt2SMdh1L7S2Ylz6X-54" target="GgUAt2SMdh1L7S2Ylz6X-3" edge="1">
          <mxGeometry relative="1" as="geometry" />
        </mxCell>
        <mxCell id="GgUAt2SMdh1L7S2Ylz6X-60" style="edgeStyle=orthogonalEdgeStyle;rounded=0;orthogonalLoop=1;jettySize=auto;html=1;exitX=0;exitY=0.75;exitDx=0;exitDy=0;entryX=0.5;entryY=0;entryDx=0;entryDy=0;" parent="WIyWlLk6GJQsqaUBKTNV-1" source="GgUAt2SMdh1L7S2Ylz6X-54" target="GgUAt2SMdh1L7S2Ylz6X-7" edge="1">
          <mxGeometry relative="1" as="geometry" />
        </mxCell>
        <mxCell id="GgUAt2SMdh1L7S2Ylz6X-61" style="edgeStyle=orthogonalEdgeStyle;rounded=0;orthogonalLoop=1;jettySize=auto;html=1;exitX=0.5;exitY=1;exitDx=0;exitDy=0;" parent="WIyWlLk6GJQsqaUBKTNV-1" source="GgUAt2SMdh1L7S2Ylz6X-54" target="GgUAt2SMdh1L7S2Ylz6X-11" edge="1">
          <mxGeometry relative="1" as="geometry" />
        </mxCell>
        <mxCell id="GgUAt2SMdh1L7S2Ylz6X-62" style="edgeStyle=orthogonalEdgeStyle;rounded=0;orthogonalLoop=1;jettySize=auto;html=1;exitX=1;exitY=0.75;exitDx=0;exitDy=0;" parent="WIyWlLk6GJQsqaUBKTNV-1" source="GgUAt2SMdh1L7S2Ylz6X-54" target="GgUAt2SMdh1L7S2Ylz6X-16" edge="1">
          <mxGeometry relative="1" as="geometry" />
        </mxCell>
        <mxCell id="GgUAt2SMdh1L7S2Ylz6X-63" style="edgeStyle=orthogonalEdgeStyle;rounded=0;orthogonalLoop=1;jettySize=auto;html=1;exitX=1;exitY=0.5;exitDx=0;exitDy=0;entryX=0.5;entryY=0;entryDx=0;entryDy=0;" parent="WIyWlLk6GJQsqaUBKTNV-1" source="GgUAt2SMdh1L7S2Ylz6X-54" target="GgUAt2SMdh1L7S2Ylz6X-20" edge="1">
          <mxGeometry relative="1" as="geometry" />
        </mxCell>
        <mxCell id="GgUAt2SMdh1L7S2Ylz6X-54" value="Front end" style="html=1;whiteSpace=wrap;" parent="WIyWlLk6GJQsqaUBKTNV-1" vertex="1">
          <mxGeometry x="470" y="190" width="140" height="80" as="geometry" />
        </mxCell>
        <mxCell id="GgUAt2SMdh1L7S2Ylz6X-70" value="Request" style="text;align=center;fontStyle=1;verticalAlign=middle;spacingLeft=3;spacingRight=3;strokeColor=none;rotatable=0;points=[[0,0.5],[1,0.5]];portConstraint=eastwest;html=1;" parent="WIyWlLk6GJQsqaUBKTNV-1" vertex="1">
          <mxGeometry x="570" y="530" width="80" height="26" as="geometry" />
        </mxCell>
        <mxCell id="GgUAt2SMdh1L7S2Ylz6X-71" value="Request" style="text;align=center;fontStyle=1;verticalAlign=middle;spacingLeft=3;spacingRight=3;strokeColor=none;rotatable=0;points=[[0,0.5],[1,0.5]];portConstraint=eastwest;html=1;" parent="WIyWlLk6GJQsqaUBKTNV-1" vertex="1">
          <mxGeometry x="770" y="530" width="80" height="26" as="geometry" />
        </mxCell>
        <mxCell id="GgUAt2SMdh1L7S2Ylz6X-72" value="Request" style="text;align=center;fontStyle=1;verticalAlign=middle;spacingLeft=3;spacingRight=3;strokeColor=none;rotatable=0;points=[[0,0.5],[1,0.5]];portConstraint=eastwest;html=1;" parent="WIyWlLk6GJQsqaUBKTNV-1" vertex="1">
          <mxGeometry x="970" y="530" width="80" height="26" as="geometry" />
        </mxCell>
        <mxCell id="GgUAt2SMdh1L7S2Ylz6X-73" value="Request" style="text;align=center;fontStyle=1;verticalAlign=middle;spacingLeft=3;spacingRight=3;strokeColor=none;rotatable=0;points=[[0,0.5],[1,0.5]];portConstraint=eastwest;html=1;" parent="WIyWlLk6GJQsqaUBKTNV-1" vertex="1">
          <mxGeometry x="370" y="530" width="80" height="26" as="geometry" />
        </mxCell>
        <mxCell id="GgUAt2SMdh1L7S2Ylz6X-74" value="Request" style="text;align=center;fontStyle=1;verticalAlign=middle;spacingLeft=3;spacingRight=3;strokeColor=none;rotatable=0;points=[[0,0.5],[1,0.5]];portConstraint=eastwest;html=1;" parent="WIyWlLk6GJQsqaUBKTNV-1" vertex="1">
          <mxGeometry x="170" y="530" width="80" height="26" as="geometry" />
        </mxCell>
        <mxCell id="GgUAt2SMdh1L7S2Ylz6X-75" value="Request" style="text;align=center;fontStyle=1;verticalAlign=middle;spacingLeft=3;spacingRight=3;strokeColor=none;rotatable=0;points=[[0,0.5],[1,0.5]];portConstraint=eastwest;html=1;" parent="WIyWlLk6GJQsqaUBKTNV-1" vertex="1">
          <mxGeometry x="730" y="250" width="80" height="26" as="geometry" />
        </mxCell>
        <mxCell id="GgUAt2SMdh1L7S2Ylz6X-76" value="Request" style="text;align=center;fontStyle=1;verticalAlign=middle;spacingLeft=3;spacingRight=3;strokeColor=none;rotatable=0;points=[[0,0.5],[1,0.5]];portConstraint=eastwest;html=1;" parent="WIyWlLk6GJQsqaUBKTNV-1" vertex="1">
          <mxGeometry x="270" y="250" width="80" height="26" as="geometry" />
        </mxCell>
        <mxCell id="GgUAt2SMdh1L7S2Ylz6X-77" value="Request" style="text;align=center;fontStyle=1;verticalAlign=middle;spacingLeft=3;spacingRight=3;strokeColor=none;rotatable=0;points=[[0,0.5],[1,0.5]];portConstraint=eastwest;html=1;" parent="WIyWlLk6GJQsqaUBKTNV-1" vertex="1">
          <mxGeometry x="530" y="270" width="80" height="26" as="geometry" />
        </mxCell>
        <mxCell id="GgUAt2SMdh1L7S2Ylz6X-78" value="Request" style="text;align=center;fontStyle=1;verticalAlign=middle;spacingLeft=3;spacingRight=3;strokeColor=none;rotatable=0;points=[[0,0.5],[1,0.5]];portConstraint=eastwest;html=1;" parent="WIyWlLk6GJQsqaUBKTNV-1" vertex="1">
          <mxGeometry x="870" y="230" width="80" height="26" as="geometry" />
        </mxCell>
        <mxCell id="GgUAt2SMdh1L7S2Ylz6X-79" value="Request" style="text;align=center;fontStyle=1;verticalAlign=middle;spacingLeft=3;spacingRight=3;strokeColor=none;rotatable=0;points=[[0,0.5],[1,0.5]];portConstraint=eastwest;html=1;" parent="WIyWlLk6GJQsqaUBKTNV-1" vertex="1">
          <mxGeometry x="130" y="230" width="80" height="26" as="geometry" />
        </mxCell>
        <mxCell id="GgUAt2SMdh1L7S2Ylz6X-80" value="Response" style="text;align=center;fontStyle=1;verticalAlign=middle;spacingLeft=3;spacingRight=3;strokeColor=none;rotatable=0;points=[[0,0.5],[1,0.5]];portConstraint=eastwest;html=1;" parent="WIyWlLk6GJQsqaUBKTNV-1" vertex="1">
          <mxGeometry x="430" y="560" width="80" height="30" as="geometry" />
        </mxCell>
        <mxCell id="GgUAt2SMdh1L7S2Ylz6X-83" value="Response" style="text;align=center;fontStyle=1;verticalAlign=middle;spacingLeft=3;spacingRight=3;strokeColor=none;rotatable=0;points=[[0,0.5],[1,0.5]];portConstraint=eastwest;html=1;" parent="WIyWlLk6GJQsqaUBKTNV-1" vertex="1">
          <mxGeometry x="630" y="560" width="80" height="30" as="geometry" />
        </mxCell>
        <mxCell id="GgUAt2SMdh1L7S2Ylz6X-84" value="Response" style="text;align=center;fontStyle=1;verticalAlign=middle;spacingLeft=3;spacingRight=3;strokeColor=none;rotatable=0;points=[[0,0.5],[1,0.5]];portConstraint=eastwest;html=1;" parent="WIyWlLk6GJQsqaUBKTNV-1" vertex="1">
          <mxGeometry x="827" y="560" width="80" height="30" as="geometry" />
        </mxCell>
        <mxCell id="GgUAt2SMdh1L7S2Ylz6X-85" value="Response" style="text;align=center;fontStyle=1;verticalAlign=middle;spacingLeft=3;spacingRight=3;strokeColor=none;rotatable=0;points=[[0,0.5],[1,0.5]];portConstraint=eastwest;html=1;" parent="WIyWlLk6GJQsqaUBKTNV-1" vertex="1">
          <mxGeometry x="230" y="560" width="80" height="30" as="geometry" />
        </mxCell>
        <mxCell id="GgUAt2SMdh1L7S2Ylz6X-86" value="Response" style="text;align=center;fontStyle=1;verticalAlign=middle;spacingLeft=3;spacingRight=3;strokeColor=none;rotatable=0;points=[[0,0.5],[1,0.5]];portConstraint=eastwest;html=1;" parent="WIyWlLk6GJQsqaUBKTNV-1" vertex="1">
          <mxGeometry x="30" y="560" width="80" height="30" as="geometry" />
        </mxCell>
        <mxCell id="GgUAt2SMdh1L7S2Ylz6X-87" value="Response" style="text;align=center;fontStyle=1;verticalAlign=middle;spacingLeft=3;spacingRight=3;strokeColor=none;rotatable=0;points=[[0,0.5],[1,0.5]];portConstraint=eastwest;html=1;" parent="WIyWlLk6GJQsqaUBKTNV-1" vertex="1">
          <mxGeometry x="907" y="180" width="80" height="30" as="geometry" />
        </mxCell>
        <mxCell id="GgUAt2SMdh1L7S2Ylz6X-88" value="Response" style="text;align=center;fontStyle=1;verticalAlign=middle;spacingLeft=3;spacingRight=3;strokeColor=none;rotatable=0;points=[[0,0.5],[1,0.5]];portConstraint=eastwest;html=1;" parent="WIyWlLk6GJQsqaUBKTNV-1" vertex="1">
          <mxGeometry x="100" y="180" width="80" height="30" as="geometry" />
        </mxCell>
        <mxCell id="GgUAt2SMdh1L7S2Ylz6X-89" value="Response" style="text;align=center;fontStyle=1;verticalAlign=middle;spacingLeft=3;spacingRight=3;strokeColor=none;rotatable=0;points=[[0,0.5],[1,0.5]];portConstraint=eastwest;html=1;" parent="WIyWlLk6GJQsqaUBKTNV-1" vertex="1">
          <mxGeometry x="370" y="270" width="80" height="30" as="geometry" />
        </mxCell>
        <mxCell id="GgUAt2SMdh1L7S2Ylz6X-90" value="Response" style="text;align=center;fontStyle=1;verticalAlign=middle;spacingLeft=3;spacingRight=3;strokeColor=none;rotatable=0;points=[[0,0.5],[1,0.5]];portConstraint=eastwest;html=1;" parent="WIyWlLk6GJQsqaUBKTNV-1" vertex="1">
          <mxGeometry x="630" y="270" width="80" height="30" as="geometry" />
        </mxCell>
        <mxCell id="GgUAt2SMdh1L7S2Ylz6X-91" value="Response" style="text;align=center;fontStyle=1;verticalAlign=middle;spacingLeft=3;spacingRight=3;strokeColor=none;rotatable=0;points=[[0,0.5],[1,0.5]];portConstraint=eastwest;html=1;" parent="WIyWlLk6GJQsqaUBKTNV-1" vertex="1">
          <mxGeometry x="430" y="390" width="80" height="30" as="geometry" />
        </mxCell>
        <mxCell id="GgUAt2SMdh1L7S2Ylz6X-93" value="&lt;font style=&quot;font-size: 30px;&quot;&gt;Kubernetes&lt;/font&gt;" style="text;align=center;fontStyle=1;verticalAlign=middle;spacingLeft=3;spacingRight=3;strokeColor=none;rotatable=0;points=[[0,0.5],[1,0.5]];portConstraint=eastwest;html=1;" parent="WIyWlLk6GJQsqaUBKTNV-1" vertex="1">
          <mxGeometry x="1730" y="50" width="270" height="70" as="geometry" />
        </mxCell>
        <mxCell id="GgUAt2SMdh1L7S2Ylz6X-94" value="API" style="text;align=center;fontStyle=1;verticalAlign=middle;spacingLeft=3;spacingRight=3;strokeColor=none;rotatable=0;points=[[0,0.5],[1,0.5]];portConstraint=eastwest;html=1;" parent="WIyWlLk6GJQsqaUBKTNV-1" vertex="1">
          <mxGeometry x="100" y="455" width="80" height="30" as="geometry" />
        </mxCell>
        <mxCell id="GgUAt2SMdh1L7S2Ylz6X-95" value="API" style="text;align=center;fontStyle=1;verticalAlign=middle;spacingLeft=3;spacingRight=3;strokeColor=none;rotatable=0;points=[[0,0.5],[1,0.5]];portConstraint=eastwest;html=1;" parent="WIyWlLk6GJQsqaUBKTNV-1" vertex="1">
          <mxGeometry x="300" y="455" width="80" height="30" as="geometry" />
        </mxCell>
        <mxCell id="GgUAt2SMdh1L7S2Ylz6X-96" value="API" style="text;align=center;fontStyle=1;verticalAlign=middle;spacingLeft=3;spacingRight=3;strokeColor=none;rotatable=0;points=[[0,0.5],[1,0.5]];portConstraint=eastwest;html=1;" parent="WIyWlLk6GJQsqaUBKTNV-1" vertex="1">
          <mxGeometry x="130" y="565" width="80" height="30" as="geometry" />
        </mxCell>
        <mxCell id="GgUAt2SMdh1L7S2Ylz6X-99" value="API" style="text;align=center;fontStyle=1;verticalAlign=middle;spacingLeft=3;spacingRight=3;strokeColor=none;rotatable=0;points=[[0,0.5],[1,0.5]];portConstraint=eastwest;html=1;" parent="WIyWlLk6GJQsqaUBKTNV-1" vertex="1">
          <mxGeometry x="500" y="455" width="80" height="30" as="geometry" />
        </mxCell>
        <mxCell id="GgUAt2SMdh1L7S2Ylz6X-100" value="API" style="text;align=center;fontStyle=1;verticalAlign=middle;spacingLeft=3;spacingRight=3;strokeColor=none;rotatable=0;points=[[0,0.5],[1,0.5]];portConstraint=eastwest;html=1;" parent="WIyWlLk6GJQsqaUBKTNV-1" vertex="1">
          <mxGeometry x="900" y="455" width="80" height="30" as="geometry" />
        </mxCell>
        <mxCell id="GgUAt2SMdh1L7S2Ylz6X-102" value="API" style="text;align=center;fontStyle=1;verticalAlign=middle;spacingLeft=3;spacingRight=3;strokeColor=none;rotatable=0;points=[[0,0.5],[1,0.5]];portConstraint=eastwest;html=1;" parent="WIyWlLk6GJQsqaUBKTNV-1" vertex="1">
          <mxGeometry x="700" y="455" width="80" height="30" as="geometry" />
        </mxCell>
        <mxCell id="raruHrNSubf8gWWc9drY-0" value="&lt;font style=&quot;font-size: 18px;&quot;&gt;Node 1&lt;/font&gt;" style="text;align=center;fontStyle=1;verticalAlign=middle;spacingLeft=3;spacingRight=3;strokeColor=none;rotatable=0;points=[[0,0.5],[1,0.5]];portConstraint=eastwest;html=1;" parent="WIyWlLk6GJQsqaUBKTNV-1" vertex="1">
          <mxGeometry x="1010" y="150" width="80" height="30" as="geometry" />
        </mxCell>
        <mxCell id="raruHrNSubf8gWWc9drY-7" style="edgeStyle=orthogonalEdgeStyle;rounded=0;orthogonalLoop=1;jettySize=auto;html=1;exitX=0;exitY=0.5;exitDx=0;exitDy=0;entryX=1;entryY=0.5;entryDx=0;entryDy=0;" parent="WIyWlLk6GJQsqaUBKTNV-1" source="raruHrNSubf8gWWc9drY-6" target="GgUAt2SMdh1L7S2Ylz6X-92" edge="1">
          <mxGeometry relative="1" as="geometry" />
        </mxCell>
        <mxCell id="raruHrNSubf8gWWc9drY-10" style="edgeStyle=orthogonalEdgeStyle;rounded=0;orthogonalLoop=1;jettySize=auto;html=1;exitX=1;exitY=0.5;exitDx=0;exitDy=0;entryX=0;entryY=0.5;entryDx=0;entryDy=0;" parent="WIyWlLk6GJQsqaUBKTNV-1" source="raruHrNSubf8gWWc9drY-6" target="raruHrNSubf8gWWc9drY-9" edge="1">
          <mxGeometry relative="1" as="geometry" />
        </mxCell>
        <mxCell id="raruHrNSubf8gWWc9drY-6" value="&lt;div&gt;&lt;font style=&quot;font-size: 24px;&quot;&gt;Prometheus&lt;/font&gt;&lt;/div&gt;&lt;div&gt;&lt;font style=&quot;font-size: 24px;&quot;&gt;/&lt;/font&gt;&lt;/div&gt;&lt;div&gt;&lt;font style=&quot;font-size: 24px;&quot;&gt;Monitoring tools&lt;/font&gt;&lt;/div&gt;" style="html=1;whiteSpace=wrap;" parent="WIyWlLk6GJQsqaUBKTNV-1" vertex="1">
          <mxGeometry x="1490" y="160" width="220" height="124" as="geometry" />
        </mxCell>
        <mxCell id="raruHrNSubf8gWWc9drY-8" value="&lt;font style=&quot;font-size: 16px;&quot;&gt;Monitoring metrics&lt;/font&gt;" style="text;align=center;fontStyle=1;verticalAlign=middle;spacingLeft=3;spacingRight=3;strokeColor=none;rotatable=0;points=[[0,0.5],[1,0.5]];portConstraint=eastwest;html=1;" parent="WIyWlLk6GJQsqaUBKTNV-1" vertex="1">
          <mxGeometry x="1370" y="190" width="80" height="26" as="geometry" />
        </mxCell>
        <mxCell id="raruHrNSubf8gWWc9drY-9" value="&lt;font style=&quot;font-size: 24px;&quot;&gt;Grafana&lt;/font&gt;" style="html=1;whiteSpace=wrap;" parent="WIyWlLk6GJQsqaUBKTNV-1" vertex="1">
          <mxGeometry x="2080" y="160" width="220" height="124" as="geometry" />
        </mxCell>
        <mxCell id="FTixvs0CC4882oEXm2uP-1" style="edgeStyle=orthogonalEdgeStyle;rounded=0;orthogonalLoop=1;jettySize=auto;html=1;entryX=1;entryY=0.75;entryDx=0;entryDy=0;" edge="1" parent="WIyWlLk6GJQsqaUBKTNV-1" source="FTixvs0CC4882oEXm2uP-0" target="GgUAt2SMdh1L7S2Ylz6X-92">
          <mxGeometry relative="1" as="geometry" />
        </mxCell>
        <mxCell id="FTixvs0CC4882oEXm2uP-0" value="&lt;font style=&quot;font-size: 30px;&quot;&gt;CI/CD&lt;/font&gt;" style="html=1;whiteSpace=wrap;" vertex="1" parent="WIyWlLk6GJQsqaUBKTNV-1">
          <mxGeometry x="1490" y="666" width="220" height="124" as="geometry" />
        </mxCell>
      </root>
    </mxGraphModel>
  </diagram>
</mxfile>
